/* XPM */
static char *_47b5a73433844f9b3fbaaa88aacff3bTD9n1vOe6keddg0D[] = {
/* columns rows colors chars-per-pixel */
"128 128 18 1 ",
"  c #000000",
". c #000001",
"X c #060608",
"o c #3B1725",
"O c #73172D",
"+ c #403353",
"@ c #B4202A",
"# c #AD2F45",
"$ c #8E5252",
"% c #BD6A62",
"& c #BA756A",
"* c #F9A31B",
"= c #DBA463",
"- c #E9B5A3",
"; c #F4D29C",
": c #FFEE83",
"> c #B3B9D1",
", c #FFFFFF",
/* pixels */
"                                                                                                                                ",
"                                                                                                                                ",
"                                                                                                                                ",
"                                                                                                                                ",
"                                                                                                                                ",
"                                                                                                                                ",
"                                                                                                                                ",
"                                                                                                                                ",
"                                                                                                                                ",
"                                                                                                                                ",
"                                                                                                                                ",
"                                                                                                                                ",
"                                                                                                                                ",
"                                                                                                                                ",
"                                                                                                                                ",
"                                                                                                                                ",
"                                                                                                                                ",
"                                                                                                                                ",
"                                                                                                                                ",
"                                                                                                                                ",
"                                                                                                                                ",
"                                                                                                                                ",
"                                                                                                                                ",
"                                                                                                                                ",
"                                                                                                                                ",
"                                                                                                                                ",
"                                                                                                                                ",
"                                                                                                                                ",
"                                                                                                                                ",
"                                                                                                                                ",
"                                                                                                                                ",
"                                                                                                                                ",
"                                                                                                                                ",
"                                                                                                                                ",
"                                                                                                                                ",
"                                                                                                                                ",
"                                                                                                                                ",
"                                                                                                                                ",
"                                                                                                                                ",
"                                                                                                                                ",
"                                                                                                                                ",
"                                                                                                                                ",
"                                                                                                                                ",
"                                                                                                                                ",
"                                                                                                                                ",
"                                                                                                                                ",
"                                                                                                                                ",
"                                                                                                                                ",
"                                                                                                                                ",
"                                                                                                                                ",
"                                                                                                                                ",
"                                                                                                                                ",
"                                                                                                                                ",
"                                                                                                                                ",
"                                                                                                                                ",
"                                                                                                                                ",
"                                                                                                                                ",
"                                                XX       XXX                                                                    ",
"                                              XX;;XX   XX;;;XXX                                                                 ",
"                                              X;;;;;X X;;;;;;;;X  XX                                                            ",
"                                             X;;;;;;;X;====;XXX=XX;;X                                                           ",
"                                             X;;=;;;;X=;;;;X;;;X;;;;X                                                           ",
"                                             X;;=;;=X;;===X;;=XX=;;;;X                                                          ",
"                                             X;=;;;=X;;;;;X;=X&&X=;;;X                                                          ",
"                                             X;=;;==X=;;;X;;=X&-&X=;;X                                                          ",
"                                             X;=;;=XX==;;X;=X&--&X=;;;X                                                         ",
"                                              X;;=X X;===X;=X&---&X;;=X                                                         ",
"                                              X;;=X X;;=X;;=XXXX-&X=;=X                                                         ",
"                                              X;=X   X;=X;=X>>oO-&X=;X                                                          ",
"                                               X=X   X;=X;=X-,O@-&X=;X                                                          ",
"                                                XX    X=X;=X&------XX                                                           ",
"                                                       X=X=X&------X                                                            ",
"                                                        XX=X$&&---X                                                             ",
"                                                          X=XX$&&-X                                                             ",
"                                                          XX&-XXXX                                                              ",
"                                                           X&-X                                                                 ",
"                                                          .&&-X                                                                 ",
"                                                          .......         ............                                          ",
"                                                         .-------.........############...                                       ",
"                                                         .--------.##########OOOOOOOO.---.                                      ",
"                                                        .-----&&&&.OOOOOOOOOOOO.......&---..                                    ",
"                                                        .---&&.................       .&&---.                                   ",
"                                                        .-&&..&&X---X                  ..&&&.                                   ",
"                                                        .-&&&$&X*XX-X                    ...                                    ",
"                                                         .&&&$&X+**XX                                                           ",
"                                                         .&&$XXoX++*X                                                           ",
"                                                         .&$Xoo+oXXX                                                            ",
"                                                          .Xoo+++ooX                                                            ",
"                                                          Xoo++++++X                                                            ",
"                                                          .oo+++++++X                                                           ",
"                                                           Xo+++++++X                                                           ",
"                                                           .oo++++++X                                                           ",
"                                                           .ooo+++++X                                                           ",
"                                                           ..ooooooooX                                                          ",
"                                                          .++..XXooooX                                                          ",
"                                                         .+++ooooXXXXX                                                          ",
"                                                        .+++++++oooooX                                                          ",
"                                                       .++++++++++oooX                                                          ",
"                                                      .+++++++++++ooo*.                                                         ",
"                                                     .+++++++++++++oo*.                                                         ",
"                                                    .++++++++++++++oo*.                                                         ",
"                                                   .+++++++++++++++oo*.                                                         ",
"                                                  .+++++++++++++++oo*.:.                                                        ",
"                                                  .+++++++++++++++oo*.:.                                                        ",
"                                                 .++++++++++++++++oo*.:.                                                        ",
"                                                 .++++++++++++++++o*.%:.                                                        ",
"                                                .+++++++++++++++++o*.%:.                                                        ",
"                                                .++++++++++++++++oo*.%:.                                                        ",
"                                              . .++++++++++++++++oo*.%::.                                                       ",
"                                            ..#.o++++++++++++++++oo*.%::.                                                       ",
"                                          ..###.oo++++++++++++++ooo*.%::.                                                       ",
"                                         .#O..O.oo++++++++++++++oo*.%:::.                                                       ",
"                                         .#OO#..ooo++++++++++++ooo*.%:::.                                                       ",
"                                         ..#OOO.ooo++++++++++++ooo*.%:::.                                                       ",
"                                        .##.###.oooo++++++++++oooo*.%:::.                                                       ",
"                                        .OO####O.oooo++++++++ooooo*.%:::.                                                       ",
"                                        .OOOOOOO.ooooooo+++ooooooo*.%:::.                                                       ",
"                                       .#OOOOOOOO.oooooooooooooooo*.%:::.                                                       ",
"                                      ..#OO#OOO###.ooooooooooooooo*.%%::.                                                       ",
"                                     .+.##.OO#####O.oooooooooooooo*.%%::.                                                       ",
"                                     .++..####.#OOO#.ooooooooooooo*.%%::..                                                      ",
"                                     .++oo.#..OOO####..ooooooooooo*.%%::.#..                                                    ",
"                                      .oo+o.OOO#####OOO...oooooooo*.%%%.O###.                                                   ",
"                                       ..o++...####.O#####...ooooo*.%..O.O##.                                                   ",
"                                         .++ooo.#..OO###OO###........OOOO.O.+.                                                  ",
"                                          .o+++o.OO##.#OO####OO###O. ......+.                                                   ",
"                                           ...++o.##.o.OO...#OO#..O.       .                                                    ",
"                                              .++o..++o..++o.OO.+o..                                                            "
};
